<svg xmlns="http://www.w3.org/2000/svg" viewBox="0 0 159.97 31.09"><defs><style>.cls-1{fill:#323e48;}.cls-2{fill:#fff;}.cls-3{fill:#d70032;}.cls-4{fill:#ee801d;}.cls-5{fill:#ff6b00;}.cls-6{fill:#074c96;}.cls-7{fill:#0257a0;}.cls-8{fill:none;}</style></defs><title>Logo_BancoEstado</title><g id="Capa_2" data-name="Capa 2"><g id="Capa_1-2" data-name="Capa 1"><path class="cls-1" d="M59.4,18.5l-1.12,6.11a14,14,0,0,1-5.38,1.11c-3.3,0-4.67-1.39-4.26-3.63S51.3,18.52,54,18.55a7.55,7.55,0,0,1,2.7.45l.11-.64c.25-1.34-.5-2.14-2.29-2.14a6.35,6.35,0,0,0-3.3,1,1.81,1.81,0,0,1-.91-1.72,8.21,8.21,0,0,1,4.82-1.59c2.95,0,4.88,1.33,4.27,4.63m-5.66,5.14a8.29,8.29,0,0,0,2.37-.35l.44-2.4a6.27,6.27,0,0,0-2.46-.44c-1.31,0-2.29.44-2.48,1.5s.49,1.69,2.13,1.69"/><path class="cls-1" d="M135.15,18.5,134,24.61a14.14,14.14,0,0,1-5.37,1.11c-3.31,0-4.68-1.39-4.27-3.63s2.67-3.57,5.37-3.54a7.69,7.69,0,0,1,2.69.42l.11-.64c.25-1.34-.5-2.14-2.29-2.14a6.35,6.35,0,0,0-3.3,1,1.81,1.81,0,0,1-.91-1.72,8.21,8.21,0,0,1,4.82-1.59c3,0,4.88,1.33,4.27,4.63m-5.66,5.14a8.29,8.29,0,0,0,2.37-.35l.44-2.4a6.27,6.27,0,0,0-2.46-.44c-1.31,0-2.28.44-2.48,1.5s.49,1.69,2.13,1.69"/><path id="_Trazado_" data-name=" Trazado " class="cls-1" d="M72.33,19.82a7.14,7.14,0,0,1,7-6,5,5,0,0,1,3.54,1.27A4.15,4.15,0,0,1,81.1,17a2.89,2.89,0,0,0-2.1-.84,4,4,0,0,0-3.9,3.64c-.36,1.91.35,3.61,2.59,3.61a4.2,4.2,0,0,0,2.65-.95,2.24,2.24,0,0,1,1.08,1.82,6.83,6.83,0,0,1-4.18,1.44c-3.57,0-5.55-2.17-4.86-5.9"/><path class="cls-1" d="M82.13,19.8a7.2,7.2,0,0,1,7.06-6c3.45,0,5.43,2.45,4.78,6a7.2,7.2,0,0,1-7.06,5.92c-3.45,0-5.43-2.43-4.78-5.92m9.15,0c.4-2.15-.56-3.64-2.56-3.64a4,4,0,0,0-3.9,3.64c-.4,2.12.56,3.58,2.57,3.58a4,4,0,0,0,3.89-3.58"/><path id="_Trazado_2" data-name=" Trazado 2" class="cls-1" d="M105.24,24.33a3.81,3.81,0,0,1,1.57-1.84,4.63,4.63,0,0,0,3.24,1.11c1.58,0,2.26-.59,2.4-1.35s-.42-1.18-2.37-1.49-3.68-1-3.25-3.39c.39-2.08,2.51-3.5,5.34-3.5a6.45,6.45,0,0,1,4,1.09,3.65,3.65,0,0,1-1.36,1.91,5.85,5.85,0,0,0-3.13-.85c-1.41,0-2.11.45-2.24,1.16s.29,1.08,2.15,1.39c2.36.38,4,1.2,3.57,3.42s-2.48,3.75-5.55,3.75a6,6,0,0,1-4.37-1.41"/><path class="cls-1" d="M148,19.8a7.22,7.22,0,0,1,7.07-6c3.45,0,5.42,2.45,4.78,6a7.21,7.21,0,0,1-7.06,5.92c-3.45,0-5.43-2.43-4.79-5.92m9.16,0c.39-2.15-.56-3.64-2.56-3.64a4.06,4.06,0,0,0-3.91,3.64c-.39,2.12.57,3.58,2.58,3.58a4,4,0,0,0,3.89-3.58"/><path class="cls-1" d="M145.82,10.93l-.61,3.32a5.68,5.68,0,0,0-2.2-.35,7.25,7.25,0,0,0-7.19,6c-.7,3.77,1.42,5.85,5.1,5.85A12.59,12.59,0,0,0,146,24.61l2.66-14.46ZM143.59,23a6.08,6.08,0,0,1-2.28.35c-2,0-3.17-1.36-2.77-3.56a4.2,4.2,0,0,1,4.13-3.56,3.53,3.53,0,0,1,2.08.49Z"/><path id="_Trazado_3" data-name=" Trazado 3" class="cls-1" d="M125,14.35h-4.18l.54-2.91-2.78.77-1.79,9.71c-.5,2.69,1.07,3.78,3.48,3.78a6,6,0,0,0,3.57-1.21,2.27,2.27,0,0,0-.79-1.86,3.47,3.47,0,0,1-2,.75c-1.11,0-1.81-.42-1.51-2.07l.88-4.79h4.18a4.85,4.85,0,0,0,.32-1.11,3.77,3.77,0,0,0,.08-1.06"/><path class="cls-1" d="M135.8,26.74l-.69,3.33a2.82,2.82,0,0,1-1.14.25c-.83,0-1.3-.47-1.12-1.32a1.67,1.67,0,0,1,1.65-1.34,1.18,1.18,0,0,1,.49.08l.21-1a2,2,0,0,1,.6,0m-1.22,3,.3-1.42a.86.86,0,0,0-.47-.11,1,1,0,0,0-.95.8c-.1.5.15.81.61.81a1.81,1.81,0,0,0,.51-.08"/><path class="cls-1" d="M138.23,29.15h-1.78a.55.55,0,0,0,.59.67,1.52,1.52,0,0,0,.8-.26A.52.52,0,0,1,138,30a2,2,0,0,1-1.12.35,1,1,0,0,1-1-1,1,1,0,0,1,0-.37,1.62,1.62,0,0,1,1.54-1.35.87.87,0,0,1,1,.77.94.94,0,0,1,0,.37c0,.12-.06.24-.1.36m-.48-.4c.06-.3,0-.6-.44-.61a.83.83,0,0,0-.77.61Z"/><path id="_Trazado_4" data-name=" Trazado 4" class="cls-1" d="M138.44,30a1,1,0,0,1,.37-.42,1,1,0,0,0,.72.25c.36,0,.51-.13.55-.3s-.09-.27-.53-.34-.82-.23-.71-.76a1.15,1.15,0,0,1,1.22-.79,1.51,1.51,0,0,1,.9.24.89.89,0,0,1-.32.44,1.32,1.32,0,0,0-.7-.2c-.32,0-.48.11-.51.27s.06.24.48.31.89.27.78.77a1.16,1.16,0,0,1-1.27.85,1.36,1.36,0,0,1-1-.32"/><path class="cls-1" d="M144.13,26.74l-.69,3.33a2.83,2.83,0,0,1-1.15.25c-.82,0-1.29-.47-1.11-1.32a1.67,1.67,0,0,1,1.65-1.34,1.18,1.18,0,0,1,.49.08l.21-1h.6m-1.22,3,.29-1.42a.75.75,0,0,0-.46-.11,1,1,0,0,0-1,.8c-.1.5.15.81.6.81a1.82,1.82,0,0,0,.52-.08"/><path class="cls-1" d="M146.56,29.15h-1.78a.55.55,0,0,0,.39.66.61.61,0,0,0,.19,0,1.52,1.52,0,0,0,.8-.26.47.47,0,0,1,.18.41,2,2,0,0,1-1.12.35,1,1,0,0,1-1.05-.95,1,1,0,0,1,.05-.37,1.64,1.64,0,0,1,1.55-1.35.87.87,0,0,1,1,.77.94.94,0,0,1,0,.37,1.3,1.3,0,0,1-.1.36m-.49-.4c.07-.3,0-.6-.43-.61a.82.82,0,0,0-.77.61Z"/><path id="_Trazado_5" data-name=" Trazado 5" class="cls-1" d="M150,26.78l-.72,3.46a1.5,1.5,0,0,1-.3,0,1.41,1.41,0,0,1-.29,0l.57-2.72-.67.28a.69.69,0,0,1-.12-.52l1.1-.5H150"/><path class="cls-1" d="M152.57,29.28a1.36,1.36,0,0,1-1.45,1c-.62,0-1.16-.23-1-.92a1.63,1.63,0,0,1,.76-1,.69.69,0,0,1-.29-.77,1.26,1.26,0,0,1,1.31-1c.68,0,1,.36.93.91a1.39,1.39,0,0,1-.64.82.74.74,0,0,1,.39.84m-.59.07c.07-.31-.22-.45-.57-.61l-.16-.08a1.2,1.2,0,0,0-.54.69c-.07.37.19.49.53.49s.67-.12.74-.49m-.82-1.74c-.06.29.18.42.48.56l.13.06a.91.91,0,0,0,.48-.57c.06-.31-.15-.46-.46-.46a.59.59,0,0,0-.63.41"/><path id="_Trazado_6" data-name=" Trazado 6" class="cls-1" d="M152.93,30a1,1,0,0,1,.4-.47.91.91,0,0,0,.66.28.77.77,0,0,0,.83-.65c.08-.38-.1-.61-.57-.61-.31,0-.56.13-.79.13a.38.38,0,0,1-.15,0l.38-1.83h2a1.41,1.41,0,0,1,0,.29,2.76,2.76,0,0,1-.08.27h-1.48l-.14.71a1.38,1.38,0,0,1,.45-.08c.83,0,1.15.42,1,1.12a1.48,1.48,0,0,1-1.57,1.21,1.24,1.24,0,0,1-.93-.34"/><path id="_Trazado_7" data-name=" Trazado 7" class="cls-1" d="M155.73,30a1,1,0,0,1,.4-.47.91.91,0,0,0,.66.28.77.77,0,0,0,.83-.65c.08-.38-.1-.61-.57-.61-.31,0-.56.13-.79.13a.2.2,0,0,1-.15,0l.37-1.83h2a1.38,1.38,0,0,1-.12.56h-1.47l-.15.71a1.44,1.44,0,0,1,.46-.08c.83,0,1.15.42,1,1.12a1.48,1.48,0,0,1-1.57,1.21,1.24,1.24,0,0,1-.93-.34"/><path id="_Trazado_8" data-name=" Trazado 8" class="cls-1" d="M107,10.22H96.29l.54,1.71a1.22,1.22,0,0,1,0,.27v.14l-2.4,13h9.91a5.49,5.49,0,0,0,.39-1.25,3.76,3.76,0,0,0,0-1.16H97.57l.76-4.15h6.26A6.86,6.86,0,0,0,105,17.6a5.39,5.39,0,0,0,.08-1.2h-6.3l.69-3.75h7a5.11,5.11,0,0,0,.36-1.21,5,5,0,0,0,.09-1.22"/><path id="_Trazado_9" data-name=" Trazado 9" class="cls-1" d="M67.15,13.85a10.16,10.16,0,0,0-3,.47.41.41,0,0,1-.22,0,.49.49,0,0,1-.24,0h0l-1.88-.56-.34,1.86h0l-1.8,9.75a6.28,6.28,0,0,0,1.3.11,7,7,0,0,0,1.37-.11l1.55-8.45a5.89,5.89,0,0,1,2.6-.62c1.72,0,2.57.78,2.19,2.84l-1.15,6.23a6.54,6.54,0,0,0,1.32.11,7,7,0,0,0,1.37-.11l1.27-6.87c.47-2.57-.73-4.65-4.34-4.65"/><path class="cls-1" d="M48.5,14.23c.49-2.67-1-4.18-5-4.18H37.81l.62,1.82a.71.71,0,0,1,0,.29.61.61,0,0,1,0,.19l-2.4,13a23.36,23.36,0,0,0,4.65.38c4.28,0,6.66-1.77,7.19-4.65A2.86,2.86,0,0,0,46,17.49h0a4.14,4.14,0,0,0,2.51-3.25M45.24,21c-.31,1.7-1.49,2.46-4,2.46a18.7,18.7,0,0,1-2.12-.12l.85-4.6h2.54c2,0,3,.75,2.72,2.26m.65-6.72c-.26,1.41-1.18,2.22-3.17,2.22H40.39l.77-4.18c.74-.07,1.45-.1,2.14-.1,2,0,2.83.76,2.59,2.06"/><rect class="cls-2" width="31.09" height="31.09"/><path id="_Trazado_10" data-name=" Trazado 10" class="cls-3" d="M.74,15.63,11.29,11V7.65h0a14,14,0,0,0,8.5-4.75h0l10.56,8.62V.74H.74Z"/><path id="_Trazado_11" data-name=" Trazado 11" class="cls-2" d="M11.31,25.41h8.48V2.91h0A14,14,0,0,1,11.3,7.65h0V11L.74,15.63v3.31L11.3,14.31V11l3.39-1.48V12.8l-3.38,1.5v3.24l3.39-1.48v3.23l-3.39,1.49V17.54L.74,22.17v3.24l10.57-4.63Z"/><polygon id="_Trazado_12" data-name=" Trazado 12" class="cls-4" points="11.31 17.54 11.31 17.54 11.31 14.3 11.3 14.31 11.3 14.31 0.74 18.94 0.74 22.18 11.31 17.54 11.31 17.54"/><polygon id="_Trazado_13" data-name=" Trazado 13" class="cls-4" points="11.31 20.78 0.74 25.41 0.74 25.41 11.31 25.41 11.31 20.78"/><polygon id="_Trazado_14" data-name=" Trazado 14" class="cls-4" points="11.31 14.3 14.69 12.83 14.69 9.56 11.3 11.05 11.3 14.31 11.31 14.3 11.31 14.3"/><polygon id="_Trazado_15" data-name=" Trazado 15" class="cls-5" points="11.31 14.3 11.31 14.3 11.3 14.31 11.3 14.31 11.31 14.3"/><polygon id="_Trazado_16" data-name=" Trazado 16" class="cls-4" points="11.31 17.54 11.31 20.78 14.7 19.29 14.7 16.06 11.31 17.54 11.31 17.54 11.31 17.54"/><polygon id="_Trazado_18" data-name=" Trazado 18" class="cls-4" points="19.8 25.41 30.35 25.41 30.35 11.53 19.79 2.91 19.8 25.41"/><polygon id="_Trazado_19" data-name=" Trazado 19" class="cls-5" points="19.79 25.41 19.8 25.41 19.79 2.91 19.79 25.41"/><polygon id="_Trazado_20" data-name=" Trazado 20" class="cls-6" points="0.74 30.34 30.35 30.34 30.35 30.34 0.74 30.34"/><polygon id="_Trazado_21" data-name=" Trazado 21" class="cls-7" points="19.8 25.41 19.79 25.41 11.31 25.41 0.74 25.41 0.74 30.34 30.35 30.34 30.35 25.41 19.8 25.41"/><line id="_Trazado_22" data-name=" Trazado 22" class="cls-8" x1="19.8" y1="25.41" x2="19.79" y2="25.41"/></g></g></svg>